<?xml version="1.0" encoding="utf-8"?>
<!-- Generator: Adobe Illustrator 27.9.0, SVG Export Plug-In . SVG Version: 6.00 Build 0)  -->
<svg version="1.1" id="Layer_1" xmlns="http://www.w3.org/2000/svg" xmlns:xlink="http://www.w3.org/1999/xlink" x="0px" y="0px"
	 viewBox="0 0 176.5 115" style="enable-background:new 0 0 176.5 115;" xml:space="preserve">
<style type="text/css">
	.st0{fill:#FFFFFF;}
	.st1{fill:#273F39;}
</style>
<g>
	<g>
		<rect x="1.09" y="-0.45" class="st0" width="175.75" height="79.28"/>
	</g>
	<g>
		<path class="st0" d="M6.92,97.95c0,3.25,2.49,5.74,5.72,5.74c2.18,0,3.76-1.05,4.74-2.32l2.23,1.99
			c-1.48,1.89-3.97,3.21-7.03,3.21c-5.22,0-8.88-3.8-8.88-8.61c0-4.81,3.61-8.61,8.83-8.61c2.49,0,4.62,0.93,6.12,2.39l-2.08,2.2
			c-1-1.01-2.42-1.72-4.07-1.72C9.31,92.21,6.92,94.76,6.92,97.95z"/>
		<path class="st0" d="M27.08,94.48c3.52,0,6.17,2.7,6.17,6.05c0,3.35-2.66,6.03-6.17,6.03c-3.52,0-6.17-2.68-6.17-6.03
			C20.91,97.18,23.57,94.48,27.08,94.48z M27.08,103.69c1.82,0,3.06-1.41,3.06-3.16s-1.24-3.18-3.06-3.18
			c-1.82,0-3.06,1.44-3.06,3.18S25.27,103.69,27.08,103.69z"/>
		<path class="st0" d="M35.88,106.32v-11.6h2.99v0.93c0.89-0.72,1.98-1.17,3.28-1.17c1.6,0,3.06,0.72,4.02,1.87
			c0.77,0.91,1.2,2.08,1.2,4.07v5.91h-3.11v-6.15c0-1.15-0.26-1.75-0.69-2.18c-0.41-0.41-1.03-0.65-1.75-0.65
			c-1.32,0-2.39,0.84-2.82,1.44v7.54H35.88z"/>
		<path class="st0" d="M61.24,103.95c-1.36,1.82-3.09,2.61-5.26,2.61c-3.59,0-6.22-2.68-6.22-6.03c0-3.37,2.7-6.05,6.24-6.05
			c2.01,0,3.8,0.93,4.88,2.32l-2.2,1.94c-0.62-0.81-1.55-1.39-2.68-1.39c-1.8,0-3.13,1.41-3.13,3.18c0,1.82,1.32,3.16,3.21,3.16
			c1.27,0,2.27-0.77,2.77-1.53L61.24,103.95z"/>
		<path class="st0" d="M73.51,104.48c-1.12,1.34-2.97,2.08-4.76,2.08c-3.47,0-6.08-2.39-6.08-6.03c0-3.23,2.2-6.05,5.65-6.05
			c3.2,0,5.48,2.7,5.48,5.93c0,0.31-0.02,0.62-0.07,0.89h-8.04c0.17,1.63,1.48,2.75,3.13,2.75c1.32,0,2.37-0.74,2.92-1.34
			L73.51,104.48z M70.61,99.02c-0.1-1.03-1.03-2.03-2.3-2.03c-1.29,0-2.34,0.98-2.49,2.03H70.61z"/>
		<path class="st0" d="M76.43,94.72h2.99v0.93c0.91-0.74,2.08-1.17,3.4-1.17c3.16,0,5.69,2.63,5.69,6.05c0,1.58-0.55,3.01-1.46,4.07
			c-1.03,1.2-2.68,1.96-4.4,1.96c-1.17,0-2.18-0.33-3.11-1.05v6.55h-3.11V94.72z M79.54,102.25c0.6,0.86,1.63,1.44,2.8,1.44
			c1.75,0,3.06-1.34,3.06-3.16c0-1.67-1.17-3.18-2.99-3.18c-1.2,0-2.23,0.58-2.87,1.44V102.25z"/>
		<path class="st0" d="M99.63,106.32c-0.41,0.14-1.34,0.24-1.94,0.24c-1.87,0-3.23-0.62-4.02-1.67c-0.6-0.79-0.86-1.82-0.86-3.47
			v-4.07h-3.23v-2.63h3.23v-3.23h3.11v3.23h3.83v2.63h-3.83v4.43c0,0.72,0.12,1.15,0.38,1.46c0.31,0.36,0.81,0.58,1.58,0.58
			c0.45,0,1.05-0.07,1.27-0.12L99.63,106.32z"/>
		<path class="st0" d="M109.26,101.85c0.96,1.05,2.42,1.84,3.95,1.84c1.44,0,2.44-0.89,2.44-2.11c0-2.15-3.11-2.42-5.36-3.73
			c-1.32-0.77-2.37-1.91-2.37-3.8c0-2.99,2.75-4.71,5.53-4.71c1.7,0,3.28,0.41,4.86,1.58l-1.67,2.39c-0.67-0.62-1.79-1.1-2.89-1.1
			c-1.22,0-2.58,0.53-2.58,1.82c0,2.7,7.73,1.87,7.73,7.51c0,2.97-2.66,5.02-5.67,5.02c-2.25,0-4.33-0.93-6.05-2.51L109.26,101.85z"
			/>
		<path class="st0" d="M121.39,94.72h2.99v0.93c0.91-0.74,2.08-1.17,3.4-1.17c3.16,0,5.69,2.63,5.69,6.05
			c0,1.58-0.55,3.01-1.46,4.07c-1.03,1.2-2.68,1.96-4.4,1.96c-1.17,0-2.18-0.33-3.11-1.05v6.55h-3.11V94.72z M124.5,102.25
			c0.6,0.86,1.63,1.44,2.8,1.44c1.75,0,3.06-1.34,3.06-3.16c0-1.67-1.17-3.18-2.99-3.18c-1.2,0-2.23,0.58-2.87,1.44V102.25z"/>
		<path class="st0" d="M147.46,106.32h-2.99v-0.93c-0.96,0.81-2.06,1.17-3.23,1.17c-1.72,0-3.35-0.77-4.38-1.96
			c-0.91-1.05-1.48-2.49-1.48-4.07c0-3.42,2.54-6.05,5.69-6.05c1.32,0,2.49,0.43,3.4,1.17v-0.93h2.99V106.32z M144.35,98.78
			c-0.65-0.86-1.67-1.44-2.87-1.44c-1.82,0-2.99,1.51-2.99,3.18c0,1.82,1.32,3.16,3.06,3.16c1.17,0,2.2-0.57,2.8-1.44V98.78z"/>
		<path class="st0" d="M161.58,103.95c-1.36,1.82-3.09,2.61-5.26,2.61c-3.59,0-6.22-2.68-6.22-6.03c0-3.37,2.7-6.05,6.24-6.05
			c2.01,0,3.8,0.93,4.88,2.32l-2.2,1.94c-0.62-0.81-1.55-1.39-2.68-1.39c-1.79,0-3.13,1.41-3.13,3.18c0,1.82,1.32,3.16,3.21,3.16
			c1.27,0,2.27-0.77,2.77-1.53L161.58,103.95z"/>
		<path class="st0" d="M173.84,104.48c-1.12,1.34-2.97,2.08-4.76,2.08c-3.47,0-6.08-2.39-6.08-6.03c0-3.23,2.2-6.05,5.65-6.05
			c3.21,0,5.48,2.7,5.48,5.93c0,0.31-0.02,0.62-0.07,0.89h-8.04c0.17,1.63,1.48,2.75,3.13,2.75c1.32,0,2.37-0.74,2.92-1.34
			L173.84,104.48z M170.95,99.02c-0.1-1.03-1.03-2.03-2.3-2.03c-1.29,0-2.34,0.98-2.49,2.03H170.95z"/>
	</g>
	<g>
		<rect x="11.43" y="9.92" class="st1" width="3.45" height="58.53"/>
	</g>
	<g>
		
			<rect x="15.49" y="7.09" transform="matrix(-1.836970e-16 1 -1 -1.836970e-16 28.854 -5.5642)" class="st1" width="3.45" height="9.11"/>
	</g>
	<g>
		
			<rect x="15.49" y="62.21" transform="matrix(-1.836970e-16 1 -1 -1.836970e-16 83.9755 49.5572)" class="st1" width="3.45" height="9.11"/>
	</g>
	<g>
		<rect x="52.78" y="9.92" class="st1" width="3.45" height="58.53"/>
	</g>
	<g>
		<rect x="45.87" y="9.92" class="st1" width="3.45" height="58.53"/>
	</g>
	<g>
		<rect x="38.95" y="9.92" class="st1" width="3.45" height="58.53"/>
	</g>
	<g>
		
			<rect x="56.22" y="6.48" transform="matrix(-1.836970e-16 1 -1 -1.836970e-16 69.5898 -46.3)" class="st1" width="3.45" height="10.34"/>
	</g>
	<g>
		
			<rect x="56.22" y="61.6" transform="matrix(-1.836970e-16 1 -1 -1.836970e-16 124.7115 8.8212)" class="st1" width="3.45" height="10.34"/>
	</g>
	<g>
		
			<rect x="29.16" y="7.14" transform="matrix(-1.836970e-16 1 -1 -1.836970e-16 42.5788 -19.1795)" class="st1" width="3.45" height="9.11"/>
	</g>
	<g>
		
			<rect x="29.16" y="62.27" transform="matrix(-1.836970e-16 1 -1 -1.836970e-16 97.7003 35.942)" class="st1" width="3.45" height="9.11"/>
	</g>
	<g>
		<rect x="66.56" y="9.92" class="st1" width="3.45" height="58.53"/>
	</g>
	<g>
		
			<rect x="70" y="6.48" transform="matrix(-1.836970e-16 1 -1 -1.836970e-16 83.3703 -60.0804)" class="st1" width="3.45" height="10.34"/>
	</g>
	<g>
		
			<rect x="70" y="37.48" transform="matrix(-1.836970e-16 1 -1 -1.836970e-16 114.376 -29.0747)" class="st1" width="3.45" height="10.34"/>
	</g>
	<g>
		
			<rect x="70" y="61.6" transform="matrix(-1.836970e-16 1 -1 -1.836970e-16 138.4917 -4.959)" class="st1" width="3.45" height="10.34"/>
	</g>
	<g>
		<rect x="80.36" y="9.92" class="st1" width="3.45" height="58.53"/>
	</g>
	<g>
		<rect x="87.27" y="9.92" class="st1" width="3.45" height="34.45"/>
	</g>
	<g>
		
			<rect x="83.39" y="7.09" transform="matrix(-1.836970e-16 1 -1 -1.836970e-16 96.7543 -73.4644)" class="st1" width="3.45" height="9.11"/>
	</g>
	<g>
		
			<rect x="83.39" y="38.09" transform="matrix(-1.836970e-16 1 -1 -1.836970e-16 127.76 -42.4587)" class="st1" width="3.45" height="9.11"/>
	</g>
	<g>
		<rect x="97.61" y="9.96" class="st1" width="3.45" height="58.53"/>
	</g>
	<g>
		
			<rect x="135.5" y="37.48" transform="matrix(-1.836970e-16 1 -1 -1.836970e-16 203.9917 -70.4594)" class="st1" width="3.45" height="58.57"/>
	</g>
	<g>
		
			<rect x="97.61" y="6.48" transform="matrix(-1.836970e-16 1 -1 -1.836970e-16 110.9746 -87.6848)" class="st1" width="3.45" height="10.34"/>
	</g>
	<g>
		<polygon class="st1" points="42.4,28.85 45.86,39.19 47.59,39.19 47.76,42.2 47.22,49.52 45.86,49.52 42.4,39.19 40.66,39.19 
			40.66,34.02 40.66,28.85 		"/>
	</g>
	<g>
		<rect x="25.22" y="9.98" class="st1" width="3.45" height="58.53"/>
	</g>
	<g>
		<rect x="32.06" y="9.98" class="st1" width="3.45" height="58.53"/>
	</g>
</g>
</svg>
