<?xml version="1.0" encoding="utf-8"?>
<!-- Generator: Adobe Illustrator 27.9.0, SVG Export Plug-In . SVG Version: 6.00 Build 0)  -->
<svg version="1.1" id="Layer_1" xmlns="http://www.w3.org/2000/svg" xmlns:xlink="http://www.w3.org/1999/xlink" x="0px" y="0px"
	 viewBox="0 0 575 372" style="enable-background:new 0 0 575 372;" xml:space="preserve">
<style type="text/css">
	.st0{fill:#1C3C37;}
	.st1{fill:#FFFFFF;}
</style>
<g>
	<rect x="0.05" y="-0.02" class="st0" width="574.52" height="259.16"/>
	<g>
		<path class="st0" d="M15.53,318.84c0,10.63,8.13,18.77,18.69,18.77c7.12,0,12.28-3.44,15.48-7.59l7.27,6.49
			C52.13,342.7,43.99,347,33.98,347c-17.05,0-29.01-12.44-29.01-28.16c0-15.72,11.8-28.16,28.85-28.16c8.13,0,15.1,3.05,20.02,7.82
			l-6.8,7.19c-3.28-3.29-7.9-5.63-13.29-5.63C23.35,300.08,15.53,308.44,15.53,318.84"/>
		<path class="st0" d="M81.44,307.49c11.5,0,20.18,8.83,20.18,19.79c0,10.94-8.68,19.71-20.18,19.71
			c-11.49,0-20.18-8.76-20.18-19.71C61.26,316.33,69.94,307.49,81.44,307.49 M81.44,337.6c5.94,0,10.01-4.61,10.01-10.32
			c0-5.71-4.07-10.4-10.01-10.4c-5.94,0-10.01,4.69-10.01,10.4C71.43,332.99,75.49,337.6,81.44,337.6"/>
		<path class="st0" d="M110.21,346.25v-37.93h9.78v3.05c2.89-2.35,6.49-3.83,10.71-3.83c5.24,0,10.01,2.35,13.14,6.1
			c2.5,2.97,3.91,6.8,3.91,13.3v19.32h-10.17v-20.1c0-3.76-0.86-5.71-2.26-7.12c-1.33-1.33-3.37-2.11-5.71-2.11
			c-4.3,0-7.82,2.74-9.23,4.69v24.64H110.21z"/>
		<path class="st0" d="M193.09,338.47c-4.46,5.94-10.09,8.53-17.21,8.53c-11.73,0-20.33-8.76-20.33-19.71
			c0-11.03,8.84-19.79,20.41-19.79c6.57,0,12.43,3.05,15.95,7.59l-7.19,6.33c-2.04-2.66-5.08-4.54-8.76-4.54
			c-5.87,0-10.25,4.62-10.25,10.4c0,5.94,4.3,10.32,10.48,10.32c4.14,0,7.43-2.5,9.07-5.01L193.09,338.47z"/>
		<path class="st0" d="M233.2,340.2c-3.67,4.38-9.69,6.81-15.56,6.81c-11.34,0-19.86-7.82-19.86-19.71
			c0-10.56,7.19-19.79,18.45-19.79c10.48,0,17.91,8.84,17.91,19.39c0,1.02-0.08,2.04-0.24,2.9h-26.28c0.55,5.32,4.85,9,10.24,9
			c4.3,0,7.74-2.43,9.54-4.38L233.2,340.2z M223.74,322.37c-0.31-3.36-3.36-6.65-7.51-6.65c-4.22,0-7.66,3.21-8.13,6.65H223.74z"/>
		<path class="st0" d="M242.73,308.3h9.78v3.05c2.97-2.42,6.8-3.83,11.1-3.83c10.32,0,18.61,8.6,18.61,19.79
			c0,5.16-1.8,9.85-4.77,13.29c-3.36,3.91-8.76,6.41-14.39,6.41c-3.83,0-7.11-1.09-10.17-3.44V365h-10.17V308.3z M252.9,332.94
			c1.96,2.82,5.32,4.69,9.15,4.69c5.71,0,10.01-4.38,10.01-10.32c0-5.48-3.83-10.4-9.78-10.4c-3.91,0-7.27,1.88-9.38,4.69V332.94z"
			/>
		<path class="st0" d="M318.58,346.25c-1.33,0.47-4.38,0.78-6.34,0.78c-6.1,0-10.56-2.04-13.14-5.48
			c-1.95-2.58-2.81-5.94-2.81-11.34v-13.3h-10.56v-8.6h10.56v-10.56h10.17v10.56h12.51v8.6h-12.51v14.47c0,2.35,0.39,3.76,1.25,4.77
			c1.02,1.18,2.66,1.88,5.17,1.88c1.48,0,3.44-0.23,4.14-0.39L318.58,346.25z"/>
		<path class="st0" d="M350.09,331.61c3.13,3.44,7.9,6.02,12.9,6.02c4.69,0,7.98-2.89,7.98-6.88c0-7.04-10.17-7.9-17.52-12.2
			c-4.3-2.5-7.74-6.26-7.74-12.44c0-9.77,8.99-15.4,18.06-15.4c5.55,0,10.72,1.33,15.88,5.16l-5.48,7.82
			c-2.19-2.03-5.86-3.6-9.46-3.6c-3.99,0-8.45,1.72-8.45,5.94c0,8.84,25.26,6.1,25.26,24.56c0,9.7-8.68,16.43-18.53,16.43
			c-7.35,0-14.16-3.05-19.78-8.21L350.09,331.61z"/>
		<path class="st0" d="M389.72,308.3h9.78v3.05c2.97-2.42,6.8-3.83,11.1-3.83c10.32,0,18.61,8.6,18.61,19.79
			c0,5.16-1.8,9.85-4.77,13.29c-3.36,3.91-8.76,6.41-14.39,6.41c-3.83,0-7.11-1.09-10.17-3.44V365h-10.17V308.3z M399.89,332.94
			c1.96,2.82,5.32,4.69,9.15,4.69c5.71,0,10.01-4.38,10.01-10.32c0-5.48-3.83-10.4-9.78-10.4c-3.91,0-7.27,1.88-9.38,4.69V332.94z"
			/>
		<path class="st0" d="M474.96,346.23h-9.78v-3.05c-3.12,2.66-6.72,3.83-10.56,3.83c-5.63,0-10.95-2.51-14.31-6.41
			c-2.97-3.44-4.85-8.13-4.85-13.3c0-11.19,8.29-19.78,18.61-19.78c4.31,0,8.13,1.41,11.1,3.83v-3.05h9.78V346.23z M464.79,321.59
			c-2.11-2.81-5.48-4.69-9.38-4.69c-5.94,0-9.78,4.93-9.78,10.4c0,5.94,4.31,10.32,10.01,10.32c3.83,0,7.2-1.88,9.15-4.69V321.59z"
			/>
		<path class="st0" d="M521.09,338.47c-4.46,5.94-10.09,8.53-17.21,8.53c-11.73,0-20.33-8.76-20.33-19.71
			c0-11.03,8.84-19.79,20.41-19.79c6.57,0,12.43,3.05,15.95,7.59l-7.19,6.33c-2.04-2.66-5.08-4.54-8.76-4.54
			c-5.87,0-10.25,4.62-10.25,10.4c0,5.94,4.3,10.32,10.48,10.32c4.14,0,7.43-2.5,9.07-5.01L521.09,338.47z"/>
		<path class="st0" d="M561.19,340.2c-3.67,4.38-9.7,6.81-15.56,6.81c-11.34,0-19.87-7.82-19.87-19.71
			c0-10.56,7.19-19.79,18.46-19.79c10.48,0,17.91,8.84,17.91,19.39c0,1.02-0.08,2.04-0.23,2.9h-26.28c0.55,5.32,4.85,9,10.24,9
			c4.31,0,7.75-2.43,9.54-4.38L561.19,340.2z M551.73,322.37c-0.31-3.36-3.36-6.65-7.51-6.65c-4.22,0-7.66,3.21-8.13,6.65H551.73z"
			/>
		<rect x="30.27" y="31.12" class="st1" width="11.26" height="191.32"/>
		<rect x="34.27" y="31.11" class="st1" width="29.79" height="11.26"/>
		<rect x="34.27" y="211.28" class="st1" width="29.79" height="11.26"/>
		<rect x="165.43" y="31.12" class="st1" width="11.26" height="191.32"/>
		<rect x="142.85" y="31.12" class="st1" width="11.26" height="191.32"/>
		<rect x="120.24" y="31.12" class="st1" width="11.26" height="191.32"/>
		<rect x="165.43" y="31.11" class="st1" width="33.79" height="11.26"/>
		<rect x="165.43" y="211.28" class="st1" width="33.79" height="11.26"/>
		<rect x="78.95" y="31.29" class="st1" width="29.79" height="11.26"/>
		<rect x="78.95" y="211.46" class="st1" width="29.79" height="11.26"/>
		<rect x="210.48" y="31.12" class="st1" width="11.26" height="191.32"/>
		<rect x="210.48" y="31.11" class="st1" width="33.78" height="11.26"/>
		<rect x="210.48" y="132.45" class="st1" width="33.78" height="11.26"/>
		<rect x="210.48" y="211.28" class="st1" width="33.78" height="11.26"/>
		<rect x="255.61" y="31.12" class="st1" width="11.26" height="191.32"/>
		<rect x="278.2" y="31.08" class="st1" width="11.26" height="112.62"/>
		<rect x="256.23" y="31.11" class="st1" width="29.79" height="11.26"/>
		<rect x="256.23" y="132.45" class="st1" width="29.79" height="11.26"/>
		<rect x="311.98" y="31.26" class="st1" width="11.26" height="191.32"/>
		<rect x="345.76" y="211.28" class="st1" width="191.45" height="11.26"/>
		<rect x="300.72" y="31.11" class="st1" width="33.78" height="11.26"/>
		<polygon class="st1" points="131.5,92.96 142.8,126.75 148.47,126.75 149.03,136.61 147.27,160.54 142.8,160.54 131.5,126.75 
			125.82,126.75 125.82,109.86 125.82,92.96 		"/>
		<rect x="75.33" y="31.26" class="st1" width="11.26" height="191.32"/>
		<rect x="97.7" y="31.26" class="st1" width="11.26" height="191.32"/>
	</g>
</g>
</svg>
